<?xml version="1.0" encoding="UTF-8"?>
<svg version="1.1" xmlns="http://www.w3.org/2000/svg" width="1024" height="1024">
<path d="M0 0 C0.80953125 0.67675781 1.6190625 1.35351562 2.453125 2.05078125 C19.66736867 16.91522786 30.99335312 36.34290023 34 59 C36.22039515 89.40176799 28.92866444 113.31288926 10.48046875 137.41796875 C9.99191406 137.94003906 9.50335937 138.46210938 9 139 C8.34 139 7.68 139 7 139 C6.76410156 139.56976563 6.52820313 140.13953125 6.28515625 140.7265625 C2.04272567 148.23140929 -6.80531972 153.56849403 -14 158 C-13.43732422 158.99966797 -13.43732422 158.99966797 -12.86328125 160.01953125 C-3 177.78337531 -3 177.78337531 -3 182 C-1.73027344 182.02578125 -0.46054687 182.0515625 0.84765625 182.078125 C21.69064717 182.6824761 42.1309564 187.68847364 58 202 C58.90234375 202.76183594 59.8046875 203.52367187 60.734375 204.30859375 C77.57007891 218.89195349 86.79684518 239.10028397 88.8125 261.125 C89.9853669 287.01603684 81.68277595 307.71763869 65 327 C64.10861328 328.04414062 64.10861328 328.04414062 63.19921875 329.109375 C47.21375198 346.4038254 21.53726588 356.12058395 -1.51952362 357.10788727 C-8.64517174 357.27799995 -15.77144243 357.22973748 -22.8984375 357.1953125 C-25.18771236 357.19157525 -27.47698883 357.18873165 -29.76626587 357.18673706 C-35.74695369 357.17915668 -41.727542 357.15955716 -47.70819092 357.1373291 C-53.82888443 357.11674918 -59.94959425 357.10770954 -66.0703125 357.09765625 C-78.04691835 357.07630524 -90.02345085 357.04223806 -102 357 C-102 357.66 -102 358.32 -102 359 C-102.66 358.67 -103.32 358.34 -104 358 C-111.61578656 357.1593735 -119.33674668 357.08666092 -126.99023438 356.88085938 C-129.56365659 356.79417296 -132.13613892 356.67156057 -134.70605469 356.51171875 C-148.68416735 355.12367913 -148.68416735 355.12367913 -161.29504395 359.80053711 C-165.13542395 364.25420142 -167.53885181 369.21589458 -169.84088135 374.58654785 C-172.09262832 379.2750097 -175.33370882 383.33370882 -179 387 C-183.29642368 388.29891879 -186.15819589 387.99671665 -190.24536133 386.1394043 C-193.51476581 384.0163612 -195.12600265 380.83571528 -197 377.5 C-198.18706642 375.48198708 -199.37634879 373.46651937 -200.58779812 371.463027 C-202 369 -202 369 -203.30063725 366.20336246 C-206.35113889 360.26679714 -206.35113889 360.26679714 -211.90626335 356.99253654 C-215.59509728 356.61636922 -219.14421635 356.59649536 -222.85131836 356.69116211 C-224.25496363 356.68767233 -225.65860392 356.67931155 -227.06219482 356.66647339 C-230.86362725 356.64517347 -234.66162687 356.69106221 -238.46257091 356.74860072 C-242.45761613 356.79690384 -246.45239527 356.78101405 -250.44764709 356.7716217 C-258.02564725 356.76312892 -265.60226621 356.80879724 -273.17993981 356.87549168 C-284.25145506 356.97064655 -295.32313398 356.98694027 -306.39500523 357.00055027 C-308.04031947 357.00267388 -309.68563368 357.00481475 -311.33094788 357.00697327 C-312.13566939 357.00791805 -312.94039091 357.00886284 -313.76949793 357.00983626 C-318.50617149 357.01723214 -323.2424077 357.04070525 -327.97892845 357.07922447 C-330.9493034 357.10225987 -333.91969176 357.11738685 -336.89012146 357.13138962 C-338.88852129 357.14369823 -340.88684721 357.16663681 -342.88514709 357.19010925 C-370.56762504 357.29646978 -394.8176779 349.449045 -417 333 C-417.99 332.34 -418.98 331.68 -420 331 C-420 330.34 -420 329.68 -420 329 C-420.57363281 328.74863281 -421.14726562 328.49726562 -421.73828125 328.23828125 C-429.86298818 323.79003929 -435.16230591 315.26626552 -440.15234375 307.72265625 C-441.87693138 304.99771008 -441.87693138 304.99771008 -444 303 C-457.65844224 278.27517444 -461.39161212 247.51952705 -454.26171875 220.1953125 C-445.65045742 190.48953392 -426.53376647 168.23234742 -400 153 C-398.66819014 152.66063089 -397.33459217 152.32825696 -396 152 C-393.93195175 151.18053242 -391.86999568 150.34561352 -389.8125 149.5 C-384.39055312 147.36667479 -379.76554389 146.48046199 -374 146 C-373.67 145.34 -373.34 144.68 -373 144 C-370.36 144 -367.72 144 -365 144 C-365.05220703 143.04867187 -365.05220703 143.04867187 -365.10546875 142.078125 C-365.75377123 119.72712527 -359.52451062 99.43106633 -349 80 C-348.44441406 78.93910156 -347.88882813 77.87820313 -347.31640625 76.78515625 C-341.73841866 66.60566332 -334.22462975 58.13009378 -326 50 C-325.42378906 49.37738281 -324.84757813 48.75476563 -324.25390625 48.11328125 C-304.35115613 26.92351726 -271.74294162 12.41971951 -242.79052734 10.82299805 C-226.45883559 10.53329807 -210.85756586 10.53994336 -195 15 C-193.74316406 15.33902344 -192.48632812 15.67804688 -191.19140625 16.02734375 C-178.37178333 19.9049692 -165.31400204 25.81725182 -154 33 C-153.53851562 32.12859375 -153.07703125 31.2571875 -152.6015625 30.359375 C-147.96126624 21.8099368 -142.86385909 13.96592391 -136 7 C-135.34 7 -134.68 7 -134 7 C-133.690625 6.16082031 -133.690625 6.16082031 -133.375 5.3046875 C-131.50115558 2.16386873 -128.88885419 0.27258352 -126 -1.875 C-125.1188855 -2.53580566 -125.1188855 -2.53580566 -124.2199707 -3.20996094 C-111.24308297 -12.82299357 -96.91035307 -18.99621836 -81 -22 C-79.72511719 -22.25136719 -78.45023438 -22.50273437 -77.13671875 -22.76171875 C-49.98828251 -27.33504383 -20.68164061 -17.70016323 0 0 Z M-219.375 178.3125 C-228.66696915 189.50856119 -230.9489278 201.80135373 -230.1953125 215.93164062 C-229.35840927 224.79444578 -225.25567942 232.0261177 -220 239 C-219.4225 239.86625 -218.845 240.7325 -218.25 241.625 C-209.64251109 250.71068274 -198.50361625 255.40243406 -186.1015625 256.02734375 C-171.85535755 255.90174748 -160.50988501 251.28050815 -150.19140625 241.42578125 C-141.61193224 231.92871643 -137.59032788 220.24441158 -137.78515625 207.515625 C-138.94376168 193.94940866 -144.78504501 181.98564809 -155 173 C-175.50022703 158.30149501 -201.4906882 159.39190097 -219.375 178.3125 Z " fill="#4FB3F4" transform="translate(696,280)"/>
<path d="M0 0 C27.87723813 -1.0199767 56.5402373 6.82706163 78.06103516 25.078125 C79.05619141 25.91085937 80.05134766 26.74359375 81.07666016 27.6015625 C101.25789062 44.99483044 113.15334862 67.72654658 117.54541016 93.97265625 C118.59590804 100.43407319 118.59590804 100.43407319 123.06103516 105.078125 C125.89183454 106.49352469 128.31161075 106.22404582 131.47509766 106.25390625 C155.53359658 106.63531787 176.24575957 108.27025125 194.33837891 126.19921875 C203.97003438 136.38362346 210.06357954 148.19028088 213.12744141 161.89453125 C214.60696106 165.35499773 215.96900041 166.85800564 219.06103516 169.078125 C222.97555703 169.74913077 226.84798282 169.67450731 230.81103516 169.640625 C252.31966993 169.99602419 269.21068419 175.08242364 285.21337891 190.09765625 C298.4500809 203.79167232 300.65837979 219.70534699 300.37744141 237.8984375 C299.74626358 255.37598916 291.39692908 269.45494918 278.81103516 281.265625 C269.91538133 288.80560556 260.32213298 293.26618223 249.06103516 296.078125 C247.81302628 296.42044159 246.5650174 296.76275818 245.27919006 297.115448 C238.66753686 298.56543612 232.00420694 298.3413977 225.26977539 298.30517578 C223.79063423 298.30461074 222.31149252 298.30493004 220.83235168 298.30606079 C216.84122649 298.30663168 212.85022293 298.29492034 208.85912585 298.28091288 C204.67912596 298.26836132 200.49912289 298.26723154 196.31910706 298.26486206 C188.41453616 298.25866025 180.51002096 298.2422671 172.60547453 298.22216308 C163.6018174 298.19976353 154.59815753 298.18880047 145.59447944 298.17877221 C127.08329983 298.15789966 108.57217198 298.12274907 90.06103516 298.078125 C91.43193026 294.57074543 92.94139479 291.3908544 94.86181641 288.1484375 C95.4201416 287.20009033 95.9784668 286.25174316 96.55371094 285.2746582 C97.15425293 284.26105225 97.75479492 283.24744629 98.37353516 282.203125 C103.76983417 273.02690741 109.07641329 263.80724388 114.2956543 254.52929688 C117.43040833 248.95852495 120.5908998 243.40400761 123.78100586 237.86474609 C126.22538516 233.61253241 128.64531722 229.3466668 131.06103516 225.078125 C131.71144775 223.93754639 131.71144775 223.93754639 132.375 222.77392578 C144.88540067 200.70501674 150.62496458 175.44337643 144.10400391 150.30859375 C139.41368179 135.7808919 132.89070944 123.82070314 123.06103516 112.078125 C122.28630859 111.10101563 121.51158203 110.12390625 120.71337891 109.1171875 C108.74044225 94.80157128 90.69704666 86.69282172 73.06103516 82.078125 C72.38411621 81.89193604 71.70719727 81.70574707 71.00976562 81.51391602 C64.65052167 79.9029744 58.47491483 79.73077487 51.93603516 79.765625 C50.83018066 79.77126465 49.72432617 79.7769043 48.58496094 79.78271484 C22.68343459 80.16557071 -0.58501798 90.98252623 -18.93896484 109.078125 C-36.79104091 127.69260904 -44.64273571 150.27787634 -44.40917969 175.76611328 C-43.66903304 201.78998617 -31.55729993 222.13958446 -18.97192383 244.26080322 C-17.93976622 246.07671511 -16.91057453 247.8942755 -15.88232422 249.71240234 C-8.57446069 262.63110847 -1.23231485 275.52301497 6.60864258 288.12866211 C7.06730713 288.87639893 7.52597168 289.62413574 7.99853516 290.39453125 C8.39943359 291.03849854 8.80033203 291.68246582 9.21337891 292.34594727 C10.06103516 294.078125 10.06103516 294.078125 10.06103516 297.078125 C-7.93359463 297.171879 -25.92816036 297.24225554 -43.92298222 297.28537369 C-52.27971155 297.30593305 -60.63628847 297.33392561 -68.99291992 297.37988281 C-76.28295564 297.41995491 -83.57288089 297.44560587 -90.8630237 297.45447898 C-94.71735001 297.45965955 -98.57136048 297.4716944 -102.42558479 297.50104523 C-106.06588799 297.52853795 -109.70575037 297.53650313 -113.34614754 297.53055573 C-115.29351606 297.53215197 -117.24083846 297.55349523 -119.18807983 297.57580566 C-131.11859597 297.5210737 -142.64656044 294.94845289 -153.25146484 289.328125 C-154.24617798 288.81596436 -154.24617798 288.81596436 -155.26098633 288.29345703 C-161.05956124 285.20963418 -166.02293998 281.42550519 -170.93896484 277.078125 C-171.54740234 276.61148437 -172.15583984 276.14484375 -172.78271484 275.6640625 C-187.67121736 264.09163554 -196.38515593 243.86605902 -199.51708984 225.73046875 C-202.36942291 201.0366593 -196.22313903 179.38360452 -181.06787109 159.640625 C-175.83879084 153.37877422 -169.60654327 148.72275106 -162.93896484 144.078125 C-162.24931641 143.583125 -161.55966797 143.088125 -160.84912109 142.578125 C-151.58039002 136.30752469 -139.99571636 132.338438 -128.81787109 131.8828125 C-128.06860352 131.8509082 -127.31933594 131.81900391 -126.54736328 131.78613281 C-125.04989747 131.73199219 -123.55160166 131.69659585 -122.05322266 131.68261719 C-116.94478901 131.52539851 -114.00164694 130.42816271 -109.93896484 127.078125 C-107.54369056 123.48521358 -107.68707659 121.83577735 -107.66552734 117.56640625 C-107.64780273 116.25849121 -107.63007813 114.95057617 -107.61181641 113.60302734 C-107.60476685 112.91440613 -107.59771729 112.22578491 -107.5904541 111.51629639 C-107.4417003 99.57931801 -106.95568314 88.44085495 -102.93896484 77.078125 C-102.36275391 75.37076172 -102.36275391 75.37076172 -101.77490234 73.62890625 C-97.19928569 60.92050001 -90.44381063 50.45077982 -81.93896484 40.078125 C-81.22869141 39.20027344 -80.51841797 38.32242188 -79.78662109 37.41796875 C-61.84065403 16.33062198 -34.83559899 3.38385516 -7.50146484 0.328125 C-5.00134605 0.17683188 -2.50236668 0.10082565 0 0 Z " fill="#A5E5FE" transform="translate(460.93896484375,314.921875)"/>
<path d="M0 0 C17.83203789 14.68506538 31.34543057 36.85180034 33.86230469 60.04467773 C35.02272883 84.03207534 30.83159643 102.64515013 19.17480469 123.79467773 C18.55541016 124.93155029 17.93601562 126.06842285 17.29785156 127.23974609 C13.54773183 134.08760073 9.70093741 140.86765378 5.68945312 147.56542969 C1.38944631 154.76141275 -2.66169866 162.09522021 -6.70214844 169.43945312 C-11.91388428 178.83830988 -17.51319481 187.84094964 -23.13769531 197.04467773 C28.01230469 196.71467773 79.16230469 196.38467773 131.86230469 196.04467773 C128.32332353 198.40399851 126.94583558 198.27285874 122.76036072 198.21548462 C121.48332275 198.20352554 120.20628479 198.19156647 118.89054871 198.179245 C117.47219758 198.15609156 116.05384739 198.13288101 114.63549805 198.10961914 C113.14392257 198.09272588 111.6523342 198.07693972 110.16073608 198.06217957 C106.94569309 198.0295951 103.73074993 197.99227979 100.51579094 197.95228958 C95.42591703 197.89218349 90.33615206 197.86209649 85.24598694 197.8399353 C83.95693062 197.83420657 83.95693062 197.83420657 82.64183277 197.82836211 C79.99462134 197.81687097 77.34740846 197.80576626 74.70019531 197.79467773 C63.739456 197.74800036 52.78029731 197.67974361 41.82055664 197.52026367 C33.82779513 197.40417026 25.83685338 197.34503723 17.84322077 197.35156953 C13.61457929 197.35283453 9.39051585 197.32558391 5.16288567 197.22893143 C-11.29110335 196.08355535 -11.29110335 196.08355535 -26.49494553 200.57765961 C-30.03820015 204.19409875 -31.92184491 208.19066637 -33.43609428 212.9728508 C-34.58500108 216.36557109 -36.3435591 219.35144729 -38.07519531 222.48217773 C-38.71684315 223.70491885 -39.35643096 224.92874512 -39.99316406 226.15405273 C-42.41295702 230.64745607 -45.12518911 234.9432527 -47.88769531 239.23217773 C-48.34781006 239.95139404 -48.8079248 240.67061035 -49.28198242 241.41162109 C-55.14114523 250.37916104 -55.14114523 250.37916104 -59.95019531 251.98217773 C-63.90148411 252.05965399 -66.84038907 251.14982081 -70.13769531 249.04467773 C-72.1342946 246.82978455 -73.55169028 244.38524049 -75.01269531 241.79467773 C-75.43848877 241.07723389 -75.86428223 240.35979004 -76.30297852 239.62060547 C-77.17946656 238.14080989 -78.04806757 236.65631419 -78.90869141 235.16723633 C-80.33584795 232.70245703 -81.80644147 230.26634722 -83.28271484 227.83081055 C-84.3703381 226.03253884 -85.44840659 224.22882876 -86.52441406 222.42358398 C-89.2263344 217.8922722 -91.94130732 213.36883085 -94.65649414 208.84545898 C-95.98102984 206.63871559 -97.30508319 204.43168262 -98.62866211 202.22436523 C-102.59143519 195.61452776 -102.59143519 195.61452776 -106.57519531 189.01733398 C-166.14195616 90.52911008 -166.14195616 90.52911008 -156.51269531 49.79467773 C-154.60318579 42.48216389 -151.69234505 35.69962348 -148.13769531 29.04467773 C-147.67492187 28.17456055 -147.21214844 27.30444336 -146.73535156 26.40795898 C-133.65936191 3.33481381 -111.34748397 -12.62945098 -86.07519531 -19.83032227 C-55.42256978 -27.67977905 -24.35106684 -19.32874307 0 0 Z M-97.51269531 42.35717773 C-106.80466447 53.55323893 -109.08662311 65.84603146 -108.33300781 79.97631836 C-107.49610459 88.83912351 -103.39337473 96.07079543 -98.13769531 103.04467773 C-97.56019531 103.91092773 -96.98269531 104.77717773 -96.38769531 105.66967773 C-87.7802064 114.75536048 -76.64131156 119.4471118 -64.23925781 120.07202148 C-49.99305286 119.94642522 -38.64758032 115.32518589 -28.32910156 105.47045898 C-19.74962755 95.97339417 -15.7280232 84.28908932 -15.92285156 71.56030273 C-17.08145699 57.9940864 -22.92274032 46.03032582 -33.13769531 37.04467773 C-53.63792234 22.34617274 -79.62838351 23.43657871 -97.51269531 42.35717773 Z " fill="#238DD8" transform="translate(574.1376953125,415.955322265625)"/>
<path d="M0 0 C0.80953125 0.67675781 1.6190625 1.35351562 2.453125 2.05078125 C19.66736867 16.91522786 30.99335312 36.34290023 34 59 C36.22039515 89.40176799 28.92866444 113.31288926 10.48046875 137.41796875 C9.99191406 137.94003906 9.50335937 138.46210938 9 139 C8.34 139 7.68 139 7 139 C6.76410156 139.56976563 6.52820313 140.13953125 6.28515625 140.7265625 C2.04272567 148.23140929 -6.80531972 153.56849403 -14 158 C-17.25042891 156.60493574 -19.07371792 155.03216606 -21.3125 152.3125 C-35.60086816 135.54183059 -55.66975955 122.96730775 -77.94580078 120.70019531 C-84.29191436 120.24081172 -90.63822931 120.04568436 -97 120 C-98.47636972 115.63391828 -99.93412977 111.26786055 -101.25390625 106.8515625 C-107.8896761 85.10382371 -119.07539061 66.68567469 -135 50.5625 C-135.73541016 49.81669678 -136.47082031 49.07089355 -137.22851562 48.30249023 C-142.41231195 43.20176757 -147.9269807 38.9929468 -154 35 C-150.79721075 24.40139789 -143.56637565 14.96703913 -136 7 C-135.34 7 -134.68 7 -134 7 C-133.690625 6.16082031 -133.690625 6.16082031 -133.375 5.3046875 C-131.50115558 2.16386873 -128.88885419 0.27258352 -126 -1.875 C-125.41259033 -2.31553711 -124.82518066 -2.75607422 -124.2199707 -3.20996094 C-111.24308297 -12.82299357 -96.91035307 -18.99621836 -81 -22 C-79.08767578 -22.37705078 -79.08767578 -22.37705078 -77.13671875 -22.76171875 C-49.98828251 -27.33504383 -20.68164061 -17.70016323 0 0 Z " fill="#FED251" transform="translate(696,280)"/>
<path d="M0 0 C6.02574741 3.90262256 10.29362626 9.67297982 14.703125 15.23046875 C16.90677536 17.88759138 19.21302997 20.28361049 21.6875 22.6875 C32.25343014 33.10513638 32.25343014 33.10513638 32.6875 39.125 C31.8418979 43.89112092 30.59837352 45.78443218 27 49 C22.86013665 50.95276573 20.63298348 51.11230352 16.125 50.3125 C11.32765131 48.19763827 8.7429198 44.388107 5.62890625 40.3046875 C2.62150987 36.41108793 -0.78828145 32.9245438 -4.1875 29.375 C-16.48695349 16.31367687 -16.48695349 16.31367687 -17.33203125 10.85546875 C-17.21860417 7.94417372 -16.56618869 5.67507113 -14.6796875 3.42578125 C-9.80689168 -0.8470975 -6.1937908 -1.62460087 0 0 Z " fill="#FDD04F" transform="translate(532,212)"/>
<path d="M0 0 C2.96151842 3.38459247 4.43017622 6.9553363 4.1875 11.5 C1.72943877 15.86088981 -1.38846572 19.37215416 -4.8125 23 C-9.57678703 28.08792353 -14.13263569 33.32088741 -18.57617188 38.69140625 C-22.17844484 42.97626759 -25.97477296 47.33580429 -31.25 49.5 C-36.13817637 49.5 -39.6738838 47.52183505 -43.25 44.3125 C-45.30547198 40.61265044 -45.81685976 37.5699056 -44.8125 33.5 C-42.19423901 28.84625224 -38.56208427 25.24958427 -34.8125 21.5 C-34.4825 20.51 -34.1525 19.52 -33.8125 18.5 C-32.8225 18.17 -31.8325 17.84 -30.8125 17.5 C-29.23233233 15.97930027 -29.23233233 15.97930027 -27.6875 14.0625 C-27.0790625 13.34964844 -26.470625 12.63679687 -25.84375 11.90234375 C-25.1734375 11.10957031 -24.503125 10.31679687 -23.8125 9.5 C-22.28161462 7.69911258 -20.73975247 5.90750325 -19.1875 4.125 C-18.47335937 3.29226562 -17.75921875 2.45953125 -17.0234375 1.6015625 C-11.7770443 -3.38529181 -6.28984648 -3.35458479 0 0 Z " fill="#FDD04E" transform="translate(745.8125,213.5)"/>
<path d="M0 0 C3 2.4375 3 2.4375 5 5 C5.33 5.33 5.66 5.66 6 6 C6.1855223 9.10343844 6.30880627 12.18621517 6.38671875 15.29296875 C6.41224319 16.23175369 6.43776764 17.17053864 6.46406555 18.13777161 C6.51619243 20.13092451 6.56560473 22.12414993 6.61254883 24.11743164 C6.68676726 27.15748646 6.77754108 30.196754 6.86914062 33.23632812 C6.91768974 35.17184961 6.96524733 37.10739627 7.01171875 39.04296875 C7.04077805 39.94943649 7.06983734 40.85590424 7.09977722 41.7898407 C7.22372904 48.06062373 6.80259313 52.74675858 2.75 57.8125 C-0.42642744 60.33920365 -1.9547762 61 -6 61 C-10.64354097 59.5046224 -13.49632239 58.21247103 -16 54 C-16.43237305 51.42895508 -16.43237305 51.42895508 -16.51171875 48.51953125 C-16.54740967 47.44550049 -16.58310059 46.37146973 -16.61987305 45.26489258 C-16.64218994 44.12560303 -16.66450684 42.98631348 -16.6875 41.8125 C-16.71948486 40.64807373 -16.75146973 39.48364746 -16.78442383 38.28393555 C-16.87228088 34.85608972 -16.93841189 31.4284049 -17 28 C-17.02191406 27.08605469 -17.04382813 26.17210937 -17.06640625 25.23046875 C-17.4095484 10.70411766 -17.4095484 10.70411766 -15 4 C-10.58503223 -0.19960349 -5.88711832 -1.30102062 0 0 Z " fill="#FDD250" transform="translate(637,177)"/>
<path d="M0 0 C0.74403076 0.40275146 1.48806152 0.80550293 2.25463867 1.22045898 C15.00601463 8.27938282 15.00601463 8.27938282 18.3125 13.4375 C18.91856381 16.98730234 18.68404872 19.51288479 17.75 23 C14.60110747 26.71407837 12.5520492 28.80282922 7.6796875 29.3359375 C2.61025662 28.90256667 -0.74000018 27.08429291 -5.125 24.625 C-5.94492432 24.17817871 -6.76484863 23.73135742 -7.60961914 23.27099609 C-10.16769456 21.86657216 -12.71039884 20.43752851 -15.25 19 C-16.0661377 18.54109375 -16.88227539 18.0821875 -17.72314453 17.609375 C-20.05190238 16.29351101 -22.3719165 14.96389459 -24.6875 13.625 C-25.39052246 13.22104004 -26.09354492 12.81708008 -26.81787109 12.40087891 C-35.57530891 7.23491424 -35.57530891 7.23491424 -37.25 1.6875 C-37.25 -2.88924972 -36.32170789 -5.60449384 -33.25 -9 C-21.95645884 -15.57078759 -10.12690092 -5.54074078 0 0 Z " fill="#FDD150" transform="translate(769.25,413)"/>
<path d="M0 0 C2.82131888 2.27179834 4.79307969 4.3025924 5.29296875 7.9375 C5.34324219 9.08798828 5.34324219 9.08798828 5.39453125 10.26171875 C5.44351563 11.02097656 5.4925 11.78023438 5.54296875 12.5625 C4.7455793 16.19835789 2.86952436 17.64505195 0.01953125 19.94921875 C-2.828125 20.98828125 -2.828125 20.98828125 -6.04296875 21.57421875 C-7.27015625 21.79980469 -8.49734375 22.02539062 -9.76171875 22.2578125 C-11.16775759 22.48956602 -12.57402294 22.71994796 -13.98046875 22.94921875 C-14.77066406 23.08602051 -15.56085937 23.22282227 -16.375 23.36376953 C-43.33514091 28.01261187 -43.33514091 28.01261187 -48.84375 24.89453125 C-52.54658892 21.36901138 -53.13473048 18.15014082 -53.50390625 13.21484375 C-52.6638107 9.57860926 -50.89982217 7.16333968 -47.98046875 4.94921875 C-44.54700261 3.70378203 -41.08911211 3.19905948 -37.48046875 2.69921875 C-36.00259888 2.4657373 -36.00259888 2.4657373 -34.49487305 2.22753906 C-32.54035472 1.92113688 -30.58420418 1.62494181 -28.62646484 1.33984375 C-26.41981406 1.01407873 -24.22654204 0.65522002 -22.03125 0.26171875 C-5.06219853 -2.68586076 -5.06219853 -2.68586076 0 0 Z " fill="#FDD04E" transform="translate(797.98046875,311.05078125)"/>
<path d="M0 0 C0.66 0.33 1.32 0.66 2 1 C1.26901848 1.84727661 1.26901848 1.84727661 0.52326965 2.71166992 C-1.205795 5.3091553 -1.37474754 6.53537367 -1.37231445 9.61328125 C-1.37854324 10.52102295 -1.38477203 11.42876465 -1.39118958 12.36401367 C-1.38197983 13.33701416 -1.37277008 14.31001465 -1.36328125 15.3125 C-1.36377975 16.31837158 -1.36427826 17.32424316 -1.36479187 18.3605957 C-1.36245322 20.48553444 -1.35273702 22.61047603 -1.33618164 24.73535156 C-1.3125879 27.9878822 -1.31562266 31.23959302 -1.32226562 34.4921875 C-1.31668874 36.55729655 -1.3095788 38.62240216 -1.30078125 40.6875 C-1.30169266 41.66050049 -1.30260406 42.63350098 -1.30354309 43.63598633 C-1.29401108 44.54372803 -1.28447906 45.45146973 -1.2746582 46.38671875 C-1.27005081 47.18295654 -1.26544342 47.97919434 -1.26069641 48.79956055 C-0.96787319 51.27117024 -0.30567482 52.89021197 1 55 C4.45020811 56.53342583 8.29727653 56.25984024 12 56 C14.87146994 54.63002843 14.87146994 54.63002843 17 53 C16.04228378 55.61195332 15.27473532 56.81684312 12.9375 58.375 C8.7401916 59.26804434 4.91626185 58.78648796 1 57 C-1.74526061 54.75475183 -2.85106819 52.94180363 -3.40649414 49.42944336 C-3.62445278 46.19835733 -3.7100909 42.98817359 -3.75 39.75 C-3.77747314 38.59008545 -3.80494629 37.4301709 -3.83325195 36.23510742 C-3.90778388 32.82343784 -3.95533943 29.41217024 -4 26 C-4.03921737 24.25127598 -4.0794506 22.50257419 -4.12109375 20.75390625 C-4.23008621 14.14449145 -4.22299224 8.32577792 -2 2 C-1.34 1.34 -0.68 0.68 0 0 Z " fill="#FBB72F" transform="translate(624,179)"/>
<path d="M0 0 C4.00156932 1.33385644 6.05432783 3.05432783 9 6 C10.94603274 6.59070014 10.94603274 6.59070014 13 7 C13.73114014 7.49346924 14.46228027 7.98693848 15.21557617 8.49536133 C18.55535531 10.30010125 20.83252512 10.42540012 24.61328125 10.51171875 C25.86044922 10.54716797 27.10761719 10.58261719 28.39257812 10.61914062 C30.33293945 10.65297852 30.33293945 10.65297852 32.3125 10.6875 C34.28186523 10.73874023 34.28186523 10.73874023 36.29101562 10.79101562 C39.52725851 10.87339272 42.76323385 10.94258016 46 11 C46 11.33 46 11.66 46 12 C36.1 12 26.2 12 16 12 C19.3 16.29 22.6 20.58 26 25 C25.67 25.66 25.34 26.32 25 27 C24.40832031 26.27554687 23.81664062 25.55109375 23.20703125 24.8046875 C21.5722951 22.80460248 19.93411943 20.80732501 18.29296875 18.8125 C16.70213931 16.86122709 15.14834496 14.87940126 13.625 12.875 C10.16712557 9.08780419 6.25181702 6.0268623 2.23046875 2.85546875 C1.49441406 2.24316406 0.75835938 1.63085938 0 1 C0 0.67 0 0.34 0 0 Z " fill="#C4F3FD" transform="translate(568,411)"/>
<path d="M0 0 C0 0.33 0 0.66 0 1 C-8.91 1 -17.82 1 -27 1 C-18.2458028 -3.3770986 -9.29796427 -1.96344446 0 0 Z " fill="#FCC844" transform="translate(645,258)"/>
<path d="M0 0 C1.10370043 3.3111013 0.92673641 5.24748949 0.5625 8.6875 C0.40974609 10.17830078 0.40974609 10.17830078 0.25390625 11.69921875 C0.12822266 12.83810547 0.12822266 12.83810547 0 14 C0.66 14 1.32 14 2 14 C1.68289063 14.54140625 1.36578125 15.0828125 1.0390625 15.640625 C-0.18307974 18.4157149 -0.40943436 20.73208098 -0.625 23.75 C-0.69976562 24.73484375 -0.77453125 25.7196875 -0.8515625 26.734375 C-0.92503906 27.85585938 -0.92503906 27.85585938 -1 29 C-1.33 29 -1.66 29 -2 29 C-2.05874776 25.66674246 -2.09384467 22.33362062 -2.125 19 C-2.14175781 18.06542969 -2.15851563 17.13085938 -2.17578125 16.16796875 C-2.21606145 10.40790037 -1.65416655 5.5225718 0 0 Z " fill="#44A9EA" transform="translate(334,395)"/>
<path d="M0 0 C0.99 0.495 0.99 0.495 2 1 C2.59896093 3.30710878 2.95654965 5.61688718 3.33984375 7.96875 C3.55769531 8.6390625 3.77554688 9.309375 4 10 C4.99 10.33 5.98 10.66 7 11 C7 14.63 7 18.26 7 22 C4.89734696 19.89734696 4.51868443 18.96227255 3.7109375 16.19140625 C3.49179687 15.44439453 3.27265625 14.69738281 3.046875 13.92773438 C2.71429687 12.75694336 2.71429687 12.75694336 2.375 11.5625 C2.14554688 10.78583984 1.91609375 10.00917969 1.6796875 9.20898438 C0.74841687 5.99111177 0 3.37360973 0 0 Z " fill="#F8DD44" transform="translate(592,375)"/>
<path d="M0 0 C1.98 0.99 1.98 0.99 4 2 C4 2.66 4 3.32 4 4 C8.83745102 5.54798433 13.36659205 5.83408066 17.9375 3.5 C18.618125 3.005 19.29875 2.51 20 2 C19.04228378 4.61195332 18.27473532 5.81684312 15.9375 7.375 C11.64798805 8.28766212 8.05491364 7.63406968 4 6 C1.4375 3.4375 1.4375 3.4375 0 1 C0 0.67 0 0.34 0 0 Z " fill="#FBC540" transform="translate(621,230)"/>
<path d="M0 0 C0.66 0 1.32 0 2 0 C0.46356148 3.68069887 -1.78150945 5.98775204 -4.625 8.75 C-5.85089844 9.94882812 -5.85089844 9.94882812 -7.1015625 11.171875 C-7.72804688 11.77515625 -8.35453125 12.3784375 -9 13 C-9.66 12.67 -10.32 12.34 -11 12 C-9.21479439 9.99388266 -7.42241288 7.9951283 -5.625 6 C-5.11710937 5.42765625 -4.60921875 4.8553125 -4.0859375 4.265625 C-2.76495095 2.80558723 -1.38599201 1.39847843 0 0 Z " fill="#157CD2" transform="translate(446,419)"/>
<path d="M0 0 C3.46651661 1.35051006 6.84082066 2.81225935 10.1875 4.4375 C11.04730469 4.84871094 11.90710938 5.25992187 12.79296875 5.68359375 C15 7 15 7 17 10 C11.10873008 8.44966581 5.97939999 5.45088361 1 2 C0.67 1.34 0.34 0.68 0 0 Z " fill="#FAC743" transform="translate(736,420)"/>
<path d="M0 0 C4.52615993 3.67832017 8.39424999 7.41086363 12 12 C11.67 12.66 11.34 13.32 11 14 C9.16056628 12.04709472 7.32840869 10.08818082 5.5 8.125 C4.97535156 7.56941406 4.45070313 7.01382813 3.91015625 6.44140625 C0 2.2265625 0 2.2265625 0 0 Z " fill="#FBC73E" transform="translate(532,244)"/>
<path d="M0 0 C3.21043882 1.38188453 5.04936365 2.92421903 7.25 5.625 C8.03117188 6.57246094 8.03117188 6.57246094 8.828125 7.5390625 C9.40820312 8.26222656 9.40820312 8.26222656 10 9 C7 9 7 9 5.17578125 7.5390625 C4.56089844 6.90742188 3.94601562 6.27578125 3.3125 5.625 C2.68988281 4.99851562 2.06726563 4.37203125 1.42578125 3.7265625 C0 2 0 2 0 0 Z " fill="#E9D656" transform="translate(557,325)"/>
<path d="M0 0 C3.94139078 1.66751148 6.7892812 4.22710649 10 7 C9.34 7.66 8.68 8.32 8 9 C6.66368764 7.6905332 5.33102075 6.37734515 4 5.0625 C3.2575 4.33160156 2.515 3.60070312 1.75 2.84765625 C0 1 0 1 0 0 Z " fill="#EEDC4E" transform="translate(663,419)"/>
<path d="M0 0 C4.1424367 1.38081223 5.32203099 3.59825558 8 7 C7.67 7.66 7.34 8.32 7 9 C5.82737096 7.88121617 4.66204862 6.75476949 3.5 5.625 C2.8503125 4.99851563 2.200625 4.37203125 1.53125 3.7265625 C0 2 0 2 0 0 Z " fill="#FAC33D" transform="translate(520,231)"/>
<path d="M0 0 C3.3 0 6.6 0 10 0 C10 0.33 10 0.66 10 1 C6.7 1 3.4 1 0 1 C0 0.67 0 0.34 0 0 Z " fill="#59B0E6" transform="translate(576,638)"/>
<path d="M0 0 C2.97 0 5.94 0 9 0 C9 0.33 9 0.66 9 1 C6.03 1 3.06 1 0 1 C0 0.67 0 0.34 0 0 Z " fill="#5CB1E5" transform="translate(654,638)"/>
<path d="M0 0 C2.31 0 4.62 0 7 0 C7 0.33 7 0.66 7 1 C4.69 1 2.38 1 0 1 C0 0.67 0 0.34 0 0 Z " fill="#5AB0E7" transform="translate(600,638)"/>
<path d="M0 0 C1.98 0 3.96 0 6 0 C6 0.33 6 0.66 6 1 C4.02 1 2.04 1 0 1 C0 0.67 0 0.34 0 0 Z " fill="#5CB1E6" transform="translate(611,638)"/>
<path d="M0 0 C1.98 0 3.96 0 6 0 C6 0.33 6 0.66 6 1 C4.02 1 2.04 1 0 1 C0 0.67 0 0.34 0 0 Z " fill="#5BB1E6" transform="translate(376,638)"/>
<path d="M0 0 C1.65 0 3.3 0 5 0 C5 0.33 5 0.66 5 1 C3.35 1 1.7 1 0 1 C0 0.67 0 0.34 0 0 Z " fill="#5CB0E6" transform="translate(669,638)"/>
<path d="M0 0 C1.65 0 3.3 0 5 0 C5 0.33 5 0.66 5 1 C3.35 1 1.7 1 0 1 C0 0.67 0 0.34 0 0 Z " fill="#5BB0E5" transform="translate(648,638)"/>
<path d="M0 0 C1.65 0 3.3 0 5 0 C5 0.33 5 0.66 5 1 C3.35 1 1.7 1 0 1 C0 0.67 0 0.34 0 0 Z " fill="#5AAFE5" transform="translate(403,638)"/>
<path d="M0 0 C1.65 0 3.3 0 5 0 C5 0.33 5 0.66 5 1 C3.35 1 1.7 1 0 1 C0 0.67 0 0.34 0 0 Z " fill="#5BB0E7" transform="translate(394,638)"/>
<path d="M0 0 C1.65 0 3.3 0 5 0 C5 0.33 5 0.66 5 1 C3.35 1 1.7 1 0 1 C0 0.67 0 0.34 0 0 Z " fill="#5CB0E4" transform="translate(352,638)"/>
<path d="M0 0 C4 1 4 1 4 1 Z " fill="#5BB1E7" transform="translate(664,638)"/>
<path d="M0 0 C4 1 4 1 4 1 Z " fill="#5BB1E6" transform="translate(635,638)"/>
<path d="M0 0 C4 1 4 1 4 1 Z " fill="#58B0E6" transform="translate(587,638)"/>
<path d="M0 0 C4 1 4 1 4 1 Z " fill="#58AFE6" transform="translate(571,638)"/>
<path d="M0 0 C4 1 4 1 4 1 Z " fill="#56ADE5" transform="translate(563,638)"/>
<path d="M0 0 C4 1 4 1 4 1 Z " fill="#57ADE4" transform="translate(451,638)"/>
<path d="M0 0 C4 1 4 1 4 1 Z " fill="#5BB0E6" transform="translate(361,638)"/>
<path d="M0 0 C4 1 4 1 4 1 Z " fill="#F8D054" transform="translate(780,335)"/>
<path d="M0 0 C0.99 0.495 0.99 0.495 2 1 C1.01 1.495 1.01 1.495 0 2 C0 1.34 0 0.68 0 0 Z " fill="#4BA2DE" transform="translate(480,638)"/>
<path d="M0 0 C3 1 3 1 3 1 Z " fill="#5CB0E6" transform="translate(390,638)"/>
<path d="M0 0 C3 1 3 1 3 1 Z " fill="#73B9DD" transform="translate(453,289)"/>
<path d="" fill="#3C97D6" transform="translate(0,0)"/>
<path d="M0 0 C2 1 2 1 2 1 Z " fill="#5CB0E4" transform="translate(691,638)"/>
<path d="M0 0 C2 1 2 1 2 1 Z " fill="#5CB1E6" transform="translate(688,638)"/>
<path d="M0 0 C2 1 2 1 2 1 Z " fill="#5BB0E5" transform="translate(683,638)"/>
<path d="M0 0 C2 1 2 1 2 1 Z " fill="#5CB0E6" transform="translate(680,638)"/>
<path d="M0 0 C2 1 2 1 2 1 Z " fill="#5CB0E5" transform="translate(675,638)"/>
<path d="M0 0 C2 1 2 1 2 1 Z " fill="#5BB1E5" transform="translate(643,638)"/>
<path d="M0 0 C2 1 2 1 2 1 Z " fill="#5DB2E7" transform="translate(640,638)"/>
<path d="M0 0 C2 1 2 1 2 1 Z " fill="#5CB1E7" transform="translate(632,638)"/>
<path d="M0 0 C2 1 2 1 2 1 Z " fill="#5BB1E7" transform="translate(627,638)"/>
<path d="M0 0 C2 1 2 1 2 1 Z " fill="#5DB1E7" transform="translate(608,638)"/>
<path d="M0 0 C2 1 2 1 2 1 Z " fill="#5AB0E7" transform="translate(595,638)"/>
<path d="M0 0 C2 1 2 1 2 1 Z " fill="#59AFE6" transform="translate(568,638)"/>
<path d="M0 0 C2 1 2 1 2 1 Z " fill="#4EA6E1" transform="translate(475,638)"/>
<path d="M0 0 C2 1 2 1 2 1 Z " fill="#53A9E3" transform="translate(467,638)"/>
<path d="M0 0 C2 1 2 1 2 1 Z " fill="#59AFE6" transform="translate(435,638)"/>
<path d="M0 0 C2 1 2 1 2 1 Z " fill="#5BB1E7" transform="translate(419,638)"/>
<path d="M0 0 C2 1 2 1 2 1 Z " fill="#59B0E5" transform="translate(413,638)"/>
<path d="M0 0 C2 1 2 1 2 1 Z " fill="#5CB0E7" transform="translate(400,638)"/>
<path d="M0 0 C2 1 2 1 2 1 Z " fill="#5AB1E5" transform="translate(387,638)"/>
<path d="M0 0 C2 1 2 1 2 1 Z " fill="#5AAEE4" transform="translate(371,638)"/>
<path d="M0 0 C2 1 2 1 2 1 Z " fill="#5CB0E4" transform="translate(347,638)"/>
<path d="M0 0 C2 1 2 1 2 1 Z " fill="#5CAFE4" transform="translate(344,638)"/>
<path d="M0 0 C2 1 2 1 2 1 Z " fill="#5BAEE2" transform="translate(336,637)"/>
<path d="M0 0 C2 1 2 1 2 1 Z " fill="#5EACDE" transform="translate(264,601)"/>
<path d="" fill="#5DB0E1" transform="translate(0,0)"/>
<path d="" fill="#2D91D8" transform="translate(0,0)"/>
<path d="" fill="#6CB6DE" transform="translate(0,0)"/>
<path d="M0 0 C2 1 2 1 2 1 Z " fill="#3093D7" transform="translate(514,444)"/>
<path d="" fill="#FDD559" transform="translate(0,0)"/>
<path d="M0 0 C2 1 2 1 2 1 Z " fill="#FAD252" transform="translate(760,312)"/>
<path d="M0 0 C2 1 2 1 2 1 Z " fill="#6EB4E0" transform="translate(389,312)"/>
<path d="M0 0 C2 1 2 1 2 1 Z " fill="#9CBFBD" transform="translate(533,307)"/>
<path d="" fill="#85BBD4" transform="translate(0,0)"/>
<path d="M0 0 C2 1 2 1 2 1 Z " fill="#7BBAD7" transform="translate(493,292)"/>
<path d="M0 0 C2 1 2 1 2 1 Z " fill="#FDD354" transform="translate(646,256)"/>
<path d="" fill="#E9C351" transform="translate(0,0)"/>
<path d="" fill="#3F4142" transform="translate(0,0)"/>
<path d="" fill="#3891CF" transform="translate(0,0)"/>
<path d="" fill="#3D98D6" transform="translate(0,0)"/>
<path d="" fill="#3E9AD9" transform="translate(0,0)"/>
<path d="" fill="#5BB0E4" transform="translate(0,0)"/>
<path d="" fill="#5BAFE3" transform="translate(0,0)"/>
<path d="" fill="#5BB1E3" transform="translate(0,0)"/>
<path d="" fill="#5CB1E6" transform="translate(0,0)"/>
<path d="" fill="#5CB1E7" transform="translate(0,0)"/>
<path d="" fill="#5DB3E7" transform="translate(0,0)"/>
<path d="" fill="#5CB1E7" transform="translate(0,0)"/>
<path d="" fill="#5BB1E5" transform="translate(0,0)"/>
<path d="" fill="#54ACE1" transform="translate(0,0)"/>
<path d="" fill="#53ABE3" transform="translate(0,0)"/>
<path d="" fill="#55AAE3" transform="translate(0,0)"/>
<path d="" fill="#50A8E1" transform="translate(0,0)"/>
<path d="" fill="#48A1DC" transform="translate(0,0)"/>
<path d="" fill="#479FDE" transform="translate(0,0)"/>
<path d="" fill="#47A1DE" transform="translate(0,0)"/>
<path d="" fill="#4DA5E0" transform="translate(0,0)"/>
<path d="" fill="#53ABE2" transform="translate(0,0)"/>
<path d="" fill="#55AAE5" transform="translate(0,0)"/>
<path d="" fill="#55ABE4" transform="translate(0,0)"/>
<path d="" fill="#56ACE5" transform="translate(0,0)"/>
<path d="" fill="#58AEE6" transform="translate(0,0)"/>
<path d="" fill="#59AEE7" transform="translate(0,0)"/>
<path d="" fill="#5BB0E8" transform="translate(0,0)"/>
<path d="" fill="#5AB1E7" transform="translate(0,0)"/>
<path d="" fill="#5AB0E5" transform="translate(0,0)"/>
<path d="" fill="#5AAFE6" transform="translate(0,0)"/>
<path d="" fill="#5BAFE7" transform="translate(0,0)"/>
<path d="" fill="#5BB1E5" transform="translate(0,0)"/>
<path d="" fill="#5DB1E7" transform="translate(0,0)"/>
<path d="" fill="#5AB1E6" transform="translate(0,0)"/>
<path d="" fill="#5BB1E8" transform="translate(0,0)"/>
<path d="" fill="#59B0E4" transform="translate(0,0)"/>
<path d="" fill="#5AB0E4" transform="translate(0,0)"/>
<path d="" fill="#5CB0E4" transform="translate(0,0)"/>
<path d="" fill="#5FB1E5" transform="translate(0,0)"/>
<path d="" fill="#5CADE3" transform="translate(0,0)"/>
<path d="" fill="#5BACDF" transform="translate(0,0)"/>
<path d="" fill="#5EACE1" transform="translate(0,0)"/>
<path d="" fill="#5FADDF" transform="translate(0,0)"/>
<path d="" fill="#5CAEE1" transform="translate(0,0)"/>
<path d="" fill="#5EAEDF" transform="translate(0,0)"/>
<path d="" fill="#5EAEDB" transform="translate(0,0)"/>
<path d="" fill="#60AEDE" transform="translate(0,0)"/>
<path d="" fill="#5FAEE0" transform="translate(0,0)"/>
<path d="" fill="#5FAEDE" transform="translate(0,0)"/>
<path d="" fill="#5CADDF" transform="translate(0,0)"/>
<path d="" fill="#5FADE1" transform="translate(0,0)"/>
<path d="" fill="#5DAEE1" transform="translate(0,0)"/>
<path d="" fill="#5CABDE" transform="translate(0,0)"/>
<path d="" fill="#62B3E4" transform="translate(0,0)"/>
<path d="" fill="#61B2DE" transform="translate(0,0)"/>
<path d="" fill="#5EAFE0" transform="translate(0,0)"/>
<path d="" fill="#5FB0E1" transform="translate(0,0)"/>
<path d="" fill="#62B1E4" transform="translate(0,0)"/>
<path d="" fill="#2E91D8" transform="translate(0,0)"/>
<path d="" fill="#2D91D7" transform="translate(0,0)"/>
<path d="" fill="#60B1E1" transform="translate(0,0)"/>
<path d="" fill="#3195D8" transform="translate(0,0)"/>
<path d="" fill="#63B1DF" transform="translate(0,0)"/>
<path d="" fill="#2F92D7" transform="translate(0,0)"/>
<path d="" fill="#3092D8" transform="translate(0,0)"/>
<path d="" fill="#2F91D7" transform="translate(0,0)"/>
<path d="" fill="#6FB9E2" transform="translate(0,0)"/>
<path d="" fill="#64B4E2" transform="translate(0,0)"/>
<path d="" fill="#64B3DF" transform="translate(0,0)"/>
<path d="" fill="#72BCDE" transform="translate(0,0)"/>
<path d="" fill="#63B2E2" transform="translate(0,0)"/>
<path d="" fill="#3193D9" transform="translate(0,0)"/>
<path d="" fill="#79BBD9" transform="translate(0,0)"/>
<path d="" fill="#7ABADB" transform="translate(0,0)"/>
<path d="" fill="#7ABCD8" transform="translate(0,0)"/>
<path d="" fill="#7CBED9" transform="translate(0,0)"/>
<path d="" fill="#84BAD8" transform="translate(0,0)"/>
<path d="" fill="#7FBFDB" transform="translate(0,0)"/>
<path d="" fill="#7EBCD9" transform="translate(0,0)"/>
<path d="" fill="#3493D8" transform="translate(0,0)"/>
<path d="" fill="#67B5E0" transform="translate(0,0)"/>
<path d="" fill="#65B0DF" transform="translate(0,0)"/>
<path d="" fill="#75BEE4" transform="translate(0,0)"/>
<path d="" fill="#7DBFE1" transform="translate(0,0)"/>
<path d="" fill="#7FC2E2" transform="translate(0,0)"/>
<path d="" fill="#3192D8" transform="translate(0,0)"/>
<path d="" fill="#3194D9" transform="translate(0,0)"/>
<path d="" fill="#3194D7" transform="translate(0,0)"/>
<path d="" fill="#8CC3D1" transform="translate(0,0)"/>
<path d="" fill="#2E93D8" transform="translate(0,0)"/>
<path d="" fill="#3393D8" transform="translate(0,0)"/>
<path d="" fill="#3195DA" transform="translate(0,0)"/>
<path d="" fill="#3191D7" transform="translate(0,0)"/>
<path d="" fill="#D9C975" transform="translate(0,0)"/>
<path d="" fill="#EACF6A" transform="translate(0,0)"/>
<path d="" fill="#AEC9AF" transform="translate(0,0)"/>
<path d="" fill="#E8CE6A" transform="translate(0,0)"/>
<path d="" fill="#D6C265" transform="translate(0,0)"/>
<path d="" fill="#69B6E4" transform="translate(0,0)"/>
<path d="" fill="#6AB7E2" transform="translate(0,0)"/>
<path d="" fill="#EDD06C" transform="translate(0,0)"/>
<path d="" fill="#ECD067" transform="translate(0,0)"/>
<path d="" fill="#6CBAE5" transform="translate(0,0)"/>
<path d="" fill="#EED067" transform="translate(0,0)"/>
<path d="" fill="#F3CF5A" transform="translate(0,0)"/>
<path d="" fill="#66B9E4" transform="translate(0,0)"/>
<path d="" fill="#FBD45F" transform="translate(0,0)"/>
<path d="" fill="#69B8E4" transform="translate(0,0)"/>
<path d="" fill="#6AB7E4" transform="translate(0,0)"/>
<path d="" fill="#6BB6E0" transform="translate(0,0)"/>
<path d="" fill="#6BB7E5" transform="translate(0,0)"/>
<path d="" fill="#F9D359" transform="translate(0,0)"/>
<path d="" fill="#69B3E1" transform="translate(0,0)"/>
<path d="" fill="#FBD657" transform="translate(0,0)"/>
<path d="" fill="#F5CC54" transform="translate(0,0)"/>
<path d="" fill="#FAD457" transform="translate(0,0)"/>
<path d="" fill="#FDD455" transform="translate(0,0)"/>
<path d="" fill="#FED554" transform="translate(0,0)"/>
<path d="" fill="#E3BC4F" transform="translate(0,0)"/>
<path d="" fill="#6AB7E2" transform="translate(0,0)"/>
<path d="" fill="#A0BEB3" transform="translate(0,0)"/>
<path d="" fill="#6DB5E1" transform="translate(0,0)"/>
<path d="" fill="#89BED3" transform="translate(0,0)"/>
<path d="" fill="#72B7DE" transform="translate(0,0)"/>
<path d="" fill="#EDD26E" transform="translate(0,0)"/>
<path d="" fill="#6FB7DF" transform="translate(0,0)"/>
<path d="" fill="#7BBCDD" transform="translate(0,0)"/>
<path d="" fill="#7BBADB" transform="translate(0,0)"/>
<path d="" fill="#6EB7DE" transform="translate(0,0)"/>
<path d="" fill="#71B9DF" transform="translate(0,0)"/>
<path d="" fill="#79BBDB" transform="translate(0,0)"/>
<path d="" fill="#70B8E0" transform="translate(0,0)"/>
<path d="" fill="#7CBBDA" transform="translate(0,0)"/>
<path d="" fill="#78BCDA" transform="translate(0,0)"/>
<path d="" fill="#7ABDDD" transform="translate(0,0)"/>
<path d="" fill="#72BBE0" transform="translate(0,0)"/>
<path d="" fill="#74B8DC" transform="translate(0,0)"/>
<path d="" fill="#77BADE" transform="translate(0,0)"/>
<path d="" fill="#F3D469" transform="translate(0,0)"/>
<path d="" fill="#FCD655" transform="translate(0,0)"/>
<path d="" fill="#F4D467" transform="translate(0,0)"/>
<path d="" fill="#F4D469" transform="translate(0,0)"/>
<path d="" fill="#F9D363" transform="translate(0,0)"/>
<path d="" fill="#F8D15B" transform="translate(0,0)"/>
<path d="" fill="#FBD55A" transform="translate(0,0)"/>
<path d="" fill="#F1D265" transform="translate(0,0)"/>
<path d="" fill="#FAD55A" transform="translate(0,0)"/>
<path d="" fill="#FDD757" transform="translate(0,0)"/>
<path d="" fill="#FDD657" transform="translate(0,0)"/>
<path d="" fill="#FFD554" transform="translate(0,0)"/>
<path d="" fill="#FED554" transform="translate(0,0)"/>
<path d="" fill="#FFD455" transform="translate(0,0)"/>
<path d="" fill="#F9D357" transform="translate(0,0)"/>
<path d="" fill="#F9D55B" transform="translate(0,0)"/>
<path d="" fill="#EED166" transform="translate(0,0)"/>
<path d="" fill="#F2CF62" transform="translate(0,0)"/>
<path d="" fill="#F8CF58" transform="translate(0,0)"/>
<path d="" fill="#FAD058" transform="translate(0,0)"/>
<path d="" fill="#F8D359" transform="translate(0,0)"/>
<path d="" fill="#F9D159" transform="translate(0,0)"/>
<path d="" fill="#F8D059" transform="translate(0,0)"/>
<path d="" fill="#F4CE54" transform="translate(0,0)"/>
<path d="" fill="#F8D155" transform="translate(0,0)"/>
<path d="" fill="#E3C761" transform="translate(0,0)"/>
<path d="" fill="#F6D055" transform="translate(0,0)"/>
<path d="" fill="#DCC162" transform="translate(0,0)"/>
<path d="" fill="#ECC755" transform="translate(0,0)"/>
<path d="" fill="#F6D054" transform="translate(0,0)"/>
<path d="" fill="#E4C14F" transform="translate(0,0)"/>
<path d="" fill="#E7C350" transform="translate(0,0)"/>
</svg>
